<?xml version="1.0" encoding="iso-8859-1"?>
<!-- Generator: Adobe Illustrator 16.0.0, SVG Export Plug-In . SVG Version: 6.00 Build 0)  -->
<!DOCTYPE svg PUBLIC "-//W3C//DTD SVG 1.1//EN" "http://www.w3.org/Graphics/SVG/1.1/DTD/svg11.dtd">
<svg  fill="#7777f6" version="1.1" id="Capa_1" xmlns="http://www.w3.org/2000/svg" xmlns:xlink="http://www.w3.org/1999/xlink" x="0px" y="0px"
	 width="612.008px" height="612.008px" viewBox="0 0 612.008 612.008" style="enable-background:new 0 0 612.008 612.008;"
	 xml:space="preserve">
<g>
	<g id="Shape_62_copy">
		<g>
			<path d="M272.684,110.9c0,0,18.989-2.777,36.105-2.777c16.189,0,30.549,2.777,30.549,2.777c21.471,0,38.881-17.388,38.881-38.838
				c0-21.472-17.41-38.874-38.881-38.874c0,0-18.17-4.162-36.104-4.162c-15.164,0-30.55,4.162-30.55,4.162
				c-21.471,0-38.881,17.402-38.881,38.874C233.796,93.512,251.206,110.9,272.684,110.9z M143.641,493.116
				c-11.446-11.439-19.634-23.546-19.634-23.546c-15.185-15.178-39.807-15.178-54.985,0c-15.185,15.157-15.185,39.757,0,54.913
				c0,0,9.911,15.803,22.584,28.483c10.721,10.714,24.55,18.637,24.55,18.637c15.185,15.17,39.8,15.17,54.985,0
				c15.185-15.178,15.185-39.778,0-54.949C171.133,516.654,155.74,505.201,143.641,493.116z M81.939,368.105
				c0,0-2.777-18.996-2.777-36.09c0-16.183,2.777-30.527,2.777-30.527c0-21.472-17.41-38.845-38.881-38.845
				c-21.479,0-38.888,17.374-38.888,38.845c0,0-4.169,18.17-4.169,36.067c0,15.149,4.169,30.543,4.169,30.543
				c0,21.436,17.41,38.838,38.888,38.838C64.529,406.943,81.939,389.541,81.939,368.105z M116.148,97.99
				c0,0-15.795,9.889-28.475,22.555c-10.729,10.721-18.659,24.536-18.659,24.536c-15.185,15.171-15.185,39.771,0,54.941
				c15.185,15.164,39.8,15.164,54.985,0c0,0,11.468-15.386,23.567-27.463c11.446-11.454,23.567-19.642,23.567-19.642
				c15.185-15.17,15.185-39.764,0-54.92C155.948,82.805,131.333,82.805,116.148,97.99z M607.846,301.488
				c0-21.472-17.41-38.845-38.889-38.845c-21.471,0-38.881,17.374-38.881,38.845c0,0,2.777,18.974,2.777,36.067
				c0,16.176-2.777,30.543-2.777,30.543c0,21.436,17.41,38.838,38.881,38.838s38.889-17.402,38.889-38.838
				c0,0,4.162-18.178,4.162-36.09C612.008,316.867,607.846,301.488,607.846,301.488z M251.371,275.905
				c-26.552,29.961-23.753,75.767,6.244,102.291c29.99,26.523,75.825,23.731,102.37-6.236
				c26.545-29.961,138.309-265.493,138.309-265.493S277.916,245.922,251.371,275.905z M311.902,354.535
				c-17.453,0-31.597-14.123-31.597-31.554c0-17.446,14.151-31.569,31.597-31.569c17.453,0,31.598,14.123,31.598,31.569
				C343.492,340.412,329.348,354.535,311.902,354.535z M488.016,469.57c0,0-11.467,15.379-23.566,27.457
				c-11.447,11.446-23.566,19.627-23.566,19.627c-15.186,15.163-15.186,39.771,0,54.949c15.184,15.17,39.807,15.17,54.984,0
				c0,0,15.801-9.89,28.475-22.57c10.721-10.714,18.65-24.55,18.65-24.55c15.186-15.156,15.186-39.756,0-54.913
				C527.814,454.393,503.201,454.393,488.016,469.57z"/>
		</g>
	</g>
</g>
<g>
</g>
<g>
</g>
<g>
</g>
<g>
</g>
<g>
</g>
<g>
</g>
<g>
</g>
<g>
</g>
<g>
</g>
<g>
</g>
<g>
</g>
<g>
</g>
<g>
</g>
<g>
</g>
<g>
</g>
</svg>
